<?xml version="1.0" encoding="utf-8"?>
<!-- Generator: Adobe Illustrator 19.0.0, SVG Export Plug-In . SVG Version: 6.00 Build 0)  -->
<svg version="1.1" id="Layer_1" xmlns="http://www.w3.org/2000/svg" xmlns:xlink="http://www.w3.org/1999/xlink" x="0px" y="0px"
	 viewBox="254 96.7 1119.2 600.3" style="enable-background:new 254 96.7 1119.2 600.3;" xml:space="preserve">
<style type="text/css">
	.st0{fill:#007C91;}
</style>
<g>
	<polygon class="st0" points="1169.1,439.8 1169.2,439.7 1169.3,439.7 	"/>
	<polygon class="st0" points="1167.7,440.1 1167.6,440.1 1167.5,440.1 	"/>
	<polygon class="st0" points="254.3,663.6 254.3,696.7 488.7,696.7 1167.5,440.1 	"/>
	<polygon class="st0" points="1170,436.7 1169,438.1 1169.5,435.9 1315.5,97.1 1268.5,97.1 1171,429.2 1245.9,97.1 1203.3,97.1 
		1169.1,435.6 1168.5,437.6 1168.2,435.4 1180.8,97.1 1139.2,97.1 1167.1,428.1 1117.9,97.1 1074.4,97.1 1167.7,435.4 1167.9,437.6 
		1166.9,435.9 1049.9,97.1 1001.2,97.1 1163.5,429.9 974.1,97.1 914.8,97.1 1166.6,436.2 1167.5,438.1 1166.2,437.1 878.7,97.1 
		798.9,97.1 1162.1,433.6 749,97.1 626.2,97.1 1166.2,437.6 1167.5,438.7 1166.6,438.4 540.5,97.1 306,97.1 1163.5,437.4 
		254.3,141.9 254.3,260.6 1166.9,438.7 1167.9,439.1 1167.7,439.2 254.3,320.1 254.3,431.6 1167.1,439.2 254.3,489.9 254.3,602.4 
		1167.6,439.4 1167.9,439.2 1168,439.2 1167.2,439.9 601.3,695.9 746.4,695.9 1164.4,441.7 800.4,695.9 881.7,695.9 1166.9,440.2 
		1167.7,439.9 1166.7,441.1 916.6,695.9 971.5,695.9 1163.7,445.7 995.6,695.9 1037.6,695.9 1166.8,441.6 1167.8,440.4 
		1167.3,442.4 1058.2,695.9 1093.4,695.9 1165.8,449.1 1110.1,695.9 1142.1,695.9 1167.7,442.7 1168.3,440.7 1168.6,442.9 
		1159.2,695.9 1190.4,695.9 1169.7,450.2 1206.2,695.9 1238.8,695.9 1169.1,442.9 1168.9,440.7 1169.9,442.6 1257.4,695.9 
		1294,695.9 1173.3,448.6 1314,695.9 1358.6,695.9 1170.2,442.1 1169.3,440.2 1170.6,441.4 1372.9,680.5 1372.9,628.3 1174.8,444.7 
		1372.9,606.3 1372.9,568.5 1170.6,440.9 1169.3,439.6 1170.2,439.9 1372.9,550.4 1372.9,520.2 1173.3,440.9 1372.9,505.9 
		1372.9,479.4 1169.9,439.6 1168.9,439.2 1169.1,439.1 1372.9,465.7 1372.9,440.9 1169.7,439.1 1372.9,427.9 1372.9,402.7 
		1169.2,439 1168.9,439.1 1168.8,439.1 1169.6,438.6 1372.9,346.6 1372.9,314.7 1172.3,436.6 1372.9,296.6 1372.9,256.1 
		1169.9,438.1 1169.1,438.6 1170.1,437.2 1372.9,230.6 1372.9,172.6 1173.1,432.6 1372.9,135.1 1372.9,97.1 1342.6,97.1 	"/>
	<polygon class="st0" points="1372.9,389.9 1372.9,362.6 1169.3,439.7 	"/>
</g>
</svg>
