<?xml version="1.0" encoding="utf-8"?>
<!-- Generator: Adobe Illustrator 19.0.0, SVG Export Plug-In . SVG Version: 6.00 Build 0)  -->
<svg version="1.1" id="Layer_1" xmlns="http://www.w3.org/2000/svg" xmlns:xlink="http://www.w3.org/1999/xlink" x="0px" y="0px"
	 viewBox="0 0 596.5 308.5" style="enable-background:new 0 0 596.5 308.5;" xml:space="preserve">
<style type="text/css">
	.st0{fill:#252525;}
</style>
<path id="XMLID_148_" class="st0" d="M354.4,127.2c0.2-5.4,60.9-19.1,131,0c37.3,10.2,99.4,27.1,109.8,73.2
	c7.5,33.4-15.5,67.3-36.6,84.7c-41.1,34-94.6,21.5-104,19.3c-31.5-7.4-37.4-21.1-104-67.4c-46.7-32.5-70.1-48.8-92.4-55.8
	c-42.5-13.4-116.1-20.2-148.3,17.3c-13.7,16-13.9,33-32.7,42.4c-16.3,8.1-39.2,8.1-53.9-1.9c-32.5-22.1-28.5-94.5-1.9-142.5
	c29.5-53.2,84.3-72,121.3-84.7c29.1-10,80.4-10.5,183-11.6c75.6-0.8,108.6,1.3,121.3,23.1c7.1,12.1,7.2,29.1,0,40.4
	c-13,20.4-47.5,19.1-82.8,17.3c-66.5-3.3-78.7-20.6-127.1-17.3c-38.7,2.6-79.1,16.9-79,28.9c0.2,14.1,56.3,25.8,61.6,27
	c27.1,5.7,31.7,1.5,48.1,7.7c25.9,9.8,29,25.5,52,44.3c37,30.2,93.6,42.1,107.8,25c7.8-9.3,3.2-27.4-3.9-38.5
	C404.2,127.5,354.2,132.1,354.4,127.2z"/>
</svg>
