<?xml version="1.0" encoding="utf-8"?>
<!-- Generator: Adobe Illustrator 19.0.0, SVG Export Plug-In . SVG Version: 6.00 Build 0)  -->
<svg version="1.1" id="Layer_1" xmlns="http://www.w3.org/2000/svg" xmlns:xlink="http://www.w3.org/1999/xlink" x="0px" y="0px"
	 viewBox="-208.6 303.7 188.1 187.3" style="enable-background:new -208.6 303.7 188.1 187.3;" xml:space="preserve">
<style type="text/css">
	.st0{fill:#1F1F20;}
	.st1{fill:#007C91;}
</style>
<path id="XMLID_88_" class="st0" d="M-114.6,303.7c-51.9,0-94,41.9-94,93.7s42.1,93.7,94,93.7s94-41.9,94-93.7
	S-62.7,303.7-114.6,303.7z M-113.4,468.6c-39.5,0-71.5-32-71.5-71.4s32-71.4,71.5-71.4c39.5,0,71.5,32,71.5,71.4
	S-73.9,468.6-113.4,468.6z"/>
<path id="XMLID_106_" class="st1" d="M-48.1,330.8c-16.3-16.2-37-25.3-58.3-27.1c-6.5-0.6-12.2,4.6-12.2,11.1
	c0,5.9,4.6,10.7,10.4,11.1c34.8,2.6,64.1,30.6,66.1,67.3c2,36.2-24,68.5-59.9,74.3c-40.5,6.6-78-21.9-82.7-62.1
	c-3.3-28.2,10.3-54.4,32.7-68.6c4.8-3,6.6-9.1,4.4-14.3v0c-2.8-6.4-10.6-8.9-16.5-5.2c-5.9,3.7-11.5,8-16.7,13.1
	c-36.5,36.1-37,95.4-1.2,132.1c36.7,37.5,96.9,37.8,133.9,0.9C-11.4,426.9-11.4,367.5-48.1,330.8z"/>
</svg>
