<?xml version="1.0" encoding="utf-8"?>
<!-- Generator: Adobe Illustrator 19.0.0, SVG Export Plug-In . SVG Version: 6.00 Build 0)  -->
<svg version="1.1" id="Layer_1" xmlns="http://www.w3.org/2000/svg" xmlns:xlink="http://www.w3.org/1999/xlink" x="0px" y="0px"
	 viewBox="-210 303.2 189.5 188.8" style="enable-background:new -210 303.2 189.5 188.8;" xml:space="preserve">
<style type="text/css">
	.st0{fill:#1F1F20;}
	.st1{fill:#007C91;}
</style>
<g id="XMLID_77_">
	<path id="XMLID_97_" class="st0" d="M-115.2,303.2c-52.3,0-94.7,42.3-94.7,94.4s42.4,94.4,94.7,94.4s94.7-42.3,94.7-94.4
		S-62.9,303.2-115.2,303.2z M-114.1,469.4c-39.8,0-72.1-32.2-72.1-72s32.3-72,72.1-72c39.8,0,72.1,32.2,72.1,72
		S-74.3,469.4-114.1,469.4z"/>
	<path id="XMLID_81_" class="st1" d="M-48.3,330.6c-16.4-16.4-37.3-25.5-58.8-27.3c-6.6-0.6-12.3,4.6-12.3,11.2v0
		c0,5.9,4.6,10.8,10.5,11.2c35.1,2.6,64.6,30.8,66.6,67.8c2,36.5-24.2,69-60.4,74.9c-40.8,6.6-78.6-22-83.4-62.6
		c-3.9-32.8,15.2-63.1,44.2-75c4.2-1.7,7-5.8,7-10.4V320c0-7.9-8-13.4-15.4-10.5c-11.6,4.6-22.5,11.5-31.9,20.8
		c-36.8,36.4-37.3,96.1-1.2,133.1c37,37.8,97.6,38.1,135,0.9C-11.2,427.4-11.2,367.5-48.3,330.6z"/>
</g>
</svg>
