<?xml version="1.0" encoding="utf-8"?>
<!-- Generator: Adobe Illustrator 19.0.0, SVG Export Plug-In . SVG Version: 6.00 Build 0)  -->
<svg version="1.1" id="Layer_1" xmlns="http://www.w3.org/2000/svg" xmlns:xlink="http://www.w3.org/1999/xlink" x="0px" y="0px"
	 viewBox="350.3 302 190.7 190.7" style="enable-background:new 350.3 302 190.7 190.7;" xml:space="preserve">
<style type="text/css">
	.st0{fill:#201F20;}
	.st1{fill:#047C91;}
</style>
<g>
	<path id="XMLID_378_" class="st0" d="M445.7,305.6c-50.6,0-91.6,41-91.6,91.6c0,50.6,41,91.6,91.6,91.6c50.6,0,91.6-41,91.6-91.6
		C537.3,346.6,496.3,305.6,445.7,305.6z M445.7,467.5c-38.8,0-70.3-31.5-70.3-70.3c0-38.8,31.5-70.3,70.3-70.3
		c38.8,0,70.3,31.5,70.3,70.3C516,436.1,484.5,467.5,445.7,467.5z"/>
	<g id="XMLID_376_">
		<path id="XMLID_377_" class="st1" d="M486.3,340.1c32.3,22.8,39.5,67.9,15.5,99.8c-21.1,28.1-60.4,36.2-90.9,18.8
			c-3.6-2.1-7-4.4-10-6.9c-4.8-4-11.9-3.2-15.5,1.9l-0.1,0.1c-3.2,4.5-2.4,10.7,1.9,14.2c1.8,1.5,3.7,3,5.6,4.3
			c41.9,29.6,100.2,19.1,129-23.7c27.2-40.5,17.6-96-21.8-124.9c-16-11.8-34.5-17.6-52.9-17.8c-10.4-0.1-14.8,13.2-6.3,19.2l0.2,0.2
			c1.7,1.2,3.8,1.9,5.9,1.9C460.5,327.4,474.3,331.6,486.3,340.1z"/>
	</g>
</g>
</svg>
