<?xml version="1.0" encoding="utf-8"?>
<!-- Generator: Adobe Illustrator 19.0.0, SVG Export Plug-In . SVG Version: 6.00 Build 0)  -->
<svg version="1.1" id="Layer_1" xmlns="http://www.w3.org/2000/svg" xmlns:xlink="http://www.w3.org/1999/xlink" x="0px" y="0px"
	 viewBox="-77 169.7 455.7 454.3" style="enable-background:new -77 169.7 455.7 454.3;" xml:space="preserve">
<style type="text/css">
	.st0{fill:#C6A673;}
	.st1{fill:#DDDDDC;}
	.st2{fill:#252525;}
</style>
<g id="XMLID_383_">
	<path id="XMLID_805_" class="st0" d="M217,610.7c0.2-0.2,0.4-0.3,0.7-0.4C81.1,583.1,68.5,528.9,68.5,528.9l-10.9,24.1l-25.2,32
		c0,0,42.4,35.4,127.4,35.3c0.9-0.5,2-0.8,3.3-0.8c0.3,0,0.7,0,1,0.1c0.3,0,0.6-0.1,1-0.1c0.2,0,0.5,0,0.7,0
		c0.7-0.2,1.4-0.4,2.3-0.4c0.5,0,0.9,0,1.4,0.1c0.8-0.3,1.6-0.5,2.6-0.5c0.5,0,0.9,0,1.3,0.1c0.3-0.1,0.6-0.1,1-0.1
		c0.7-0.2,1.4-0.3,2.3-0.3c0.8,0,1.6,0.1,2.2,0.3c1-0.6,2.2-1,3.7-1c0.3,0,0.7,0,1,0.1c0,0,0.1,0,0.1,0c0.9-0.4,2-0.7,3.2-0.7
		c0.3,0,0.6,0,0.9,0c0.7-0.2,1.5-0.4,2.4-0.4c0.4,0,0.7,0,1.1,0.1c1-0.6,2.2-1,3.7-1.1c0.9-0.4,1.9-0.7,3.1-0.7
		c0.6,0,1.2,0.1,1.7,0.2c0.1,0,0.2,0,0.3,0c0.3-0.1,0.7-0.2,1-0.3c1-0.7,2.3-1.1,3.9-1.1c0.1,0,0.2,0,0.3,0c0.3-0.1,0.7-0.2,1.1-0.3
		c0.9-0.6,2-1,3.3-1c0.9-0.4,1.9-0.7,3.1-0.7c0,0,0.1,0,0.1,0C213.8,611.2,215.2,610.7,217,610.7C216.9,610.7,217,610.7,217,610.7z"
		/>
	<path id="XMLID_809_" class="st1" d="M152,173.4c-123.7,0-224.3,100.3-224.3,224c0,79.7,42.9,149.6,103.9,189.3V585
		c0,0,41.6-28.8,46.6-104.1c0.1-1.5-2.8-5.4-2.8-5.4l-0.3-9.6l-5-4.2l1.3-7.3l-4.7-7.9l0.6-4.6l-5-6.7l1.9-2.4l-4.6-5l0.6-1.5
		l-1.5-1.7l0.9-5.4l-2.8-3.9l-1.3-5.9l-1.8-4.9l-2-3.2l1.3-3.2l-3.5-5.4l0.2-3.2l-2.4-3.2l1.3-2.4l0.4-2.4l2-4.5l-2-3.3l1.7-3.5
		l-0.7-3.5l3.3-5.2l-2.8-5.2l4.1-1.5l-0.6-5.6l1.6-2.8l3.4-2l1.3-3.7l2.8-1.1H64l-1.3-4.8l3.3-3.7l3.9-2l1.1-6.9l-0.4-3.6l4.6-1.9
		l3,0.7l1.5-3.2v-3.2l3.6-2.5l1-2.5h3.3l1.6-2.9l2.4-1l1.6-3l4.9,0.9l1.5-2.6l3.5-0.7l2.8-2.6l4.1,1.3l2.6-0.4l2.8-2.8h8.9l2-0.6
		l3,1.3l3.3-0.2l2-2l2.4,1.3l2.4-1.3l3.7,0.9l3,1.5l2.4,0.7l1.6,1.1l3.9-0.6l2.4-1.5l2,0.7l2.6-0.4l4.3,2.4l4.6-2.8l2.2,2.4l2.6,1.9
		l10.2,0.4l5.9,2.6l2.2,2.2l3.7-1.5l2.8,2.8l4.1,0.3l1.1,2h5.8l2.6,3.2l0.9,3.2l4.5,2.1l3.8-0.8l3.6,4.6v2.2l2.1,0.2l2.5-0.9
		l2.3,5.8l0.8,3.7l2.6,2l1.3-0.7l2,1.5l2.2,4.8c0,0,2.8,9.4,3,12.7c1.4,16.2,10.2,34.6,2.4,61.1c-1.3,4.5,9.1,16.4,9.1,16.4
		s8,3.5,9.1,5.9c5.9,13.5-5,19.1-5,19.1s7.5,4.5,9.1,6.9c5.2,7.5-2.4,15.2-2.4,15.2s9.7,13.6-0.9,16.2c-5.6,1.3-13.2,5.6-13.2,5.6
		s4.2,30.7-18.8,31.8c-8.4,0.4-33.6-1.9-33.6-1.9l-13.8,37.7l-1.8,8.4l-0.8,7.6l1.7,5.2l8.9,12.8l8.4,17.3c0.4-0.1,0.8-0.1,1.2-0.1
		c0.1,0,0.3,0,0.4,0c0.3-0.1,0.7-0.2,1-0.2c0.9-0.6,2-1,3.4-1.1c0.9-0.4,1.9-0.7,3.1-0.7c0,0,0.1,0,0.1,0c1.1-0.8,2.5-1.3,4.2-1.3
		c0,0,0.1,0,0.1,0c1.1-0.8,2.5-1.3,4.2-1.3c0.1,0,0.1,0,0.2,0c89.7-29.2,154.6-113.5,154.6-213C376,273.7,275.7,173.4,152,173.4z"/>
	<polygon id="XMLID_386_" class="st2" points="213.4,211.3 216.8,234.8 238.1,245.3 216.9,255.9 213.5,279.4 196.9,262.4 
		173.4,266.4 184.5,245.4 173.4,224.4 196.8,228.3 	"/>
</g>
</svg>
