<?xml version="1.0" encoding="utf-8"?>
<!-- Generator: Adobe Illustrator 19.0.0, SVG Export Plug-In . SVG Version: 6.00 Build 0)  -->
<svg version="1.1" id="Layer_1" xmlns="http://www.w3.org/2000/svg" xmlns:xlink="http://www.w3.org/1999/xlink" x="0px" y="0px"
	 viewBox="-229.6 383.9 13.8 25.8" style="enable-background:new -229.6 383.9 13.8 25.8;" xml:space="preserve">
<style type="text/css">
	.st0{fill:none;stroke:#169FC9;stroke-width:0.3185;stroke-miterlimit:10;}
</style>
<g id="XMLID_428_">
	<path id="XMLID_447_" class="st0" d="M-228.3,404L-228.3,404l0-0.2C-228.4,403.9-228.4,403.9-228.3,404z"/>
	<path id="XMLID_446_" class="st0" d="M-225.9,398C-225.9,398-225.9,398-225.9,398C-225.9,398-225.9,398-225.9,398L-225.9,398z"/>
	<path id="XMLID_445_" class="st0" d="M-217,403.9v0.1h0C-217,404-217,403.9-217,403.9z"/>
	<path id="XMLID_443_" class="st0" d="M-216.9,395.4v6.6c0,0.1,0,0.2,0,0.3c0-0.2-0.1,0.2-0.1,0.2c-0.2,0.4-0.6,0.7-1,0.7h-0.3
		c-0.6,0-1.1-0.5-1.1-1.1v-6.6c0-0.6,0.5-1.1,1.1-1.1h0.3C-217.4,394.3-216.9,394.8-216.9,395.4z"/>
	<path id="XMLID_442_" class="st0" d="M-219.5,394c0,0.1,0,0.2,0,0.3v9.4c0,0.1,0,0.2-0.1,0.3c-0.1,0.5-0.6,0.8-1.1,0.8h-0.3
		c-0.5,0-0.9-0.3-1.1-0.8c0-0.1-0.1-0.2-0.1-0.3v-9.4c0-0.1,0-0.2,0-0.2l0.1-0.1c0.1-0.1,0.1-0.2,0.1-0.3v0c0.2-0.3,0.5-0.5,0.9-0.5
		h0.3C-220.1,393.1-219.6,393.5-219.5,394"/>
	<path id="XMLID_441_" class="st0" d="M-222.8,400.9l-0.3,0.1c-0.6,0.3-1.2,0.1-1.5-0.5l-0.7-1.3l0,0l-0.6-1.2l0,0l-0.4-0.7
		l-0.4-0.8l0,0l-0.6-1.3c-0.3-0.6-0.1-1.2,0.5-1.5l0.3-0.1c0.2-0.1,0.5-0.1,0.7-0.1c0.3,0.1,0.6,0.2,0.7,0.5c0,0,0,0,0,0
		c0,0,0,0.1,0.1,0.1l1.3,2.6l0,0l0.2,0.5l0.1,0.2l1.1,2.1C-222,399.9-222.2,400.6-222.8,400.9z"/>
	<path id="XMLID_440_" class="st0" d="M-217,402.4v1.4c0,0,0,0.1,0,0.1c-0.5,2.6-2.9,4.6-5.7,4.6s-5.1-2-5.7-4.6c0-0.1,0-0.1,0-0.2
		v-4.5c0-0.1,0-0.1,0.1-0.2l0.4-0.6l0.1-0.1l0.7-1.1l0.1-0.1l0.4-0.7l0.1-0.1l0,0l0.4,0.8l0.4,0.7c0,0,0,0,0,0c0,0,0,0,0,0l0.6,1.2
		l0,0l0.7,1.3c0.3,0.6,1,0.8,1.5,0.5l0.3-0.1c0.6-0.3,0.8-1,0.5-1.5l-1.1-2.1l-0.1-0.2l-0.2-0.5l1.6-2.6c0,0.1,0,0.2,0,0.2v9.4
		c0,0.1,0,0.2,0.1,0.3c0.1,0.5,0.6,0.8,1.1,0.8h0.3c0.5,0,0.9-0.3,1.1-0.8c0-0.1,0.1-0.2,0.1-0.3V402c0,0.6,0.5,1.1,1.1,1.1h0.3
		C-217.6,403.1-217.2,402.8-217,402.4z"/>
	<path id="XMLID_439_" class="st0" d="M-225.8,388.1v5.3c-0.2,0-0.5,0-0.7,0.1l-0.3,0.1c-0.6,0.3-0.8,1-0.5,1.5l0.6,1.3l-0.1,0.1
		l-0.4,0.7l-0.1,0.1l-0.7,1.1l-0.1,0.1l-0.4,0.6c0,0.1-0.1,0.1-0.1,0.2v-2.1h0v-9.1c0-0.6,0.5-1.1,1.1-1.1h0.3
		C-226.3,387-225.8,387.5-225.8,388.1z"/>
	<path id="XMLID_432_" class="st0" d="M-222,393.7L-222,393.7c0,0.1-0.1,0.2-0.1,0.3l-0.1,0.1l-1.5,2.5l-1.3-2.6c0,0,0-0.1-0.1-0.1
		c0,0,0,0,0,0l0.8-1.2c0.3-0.5,1-0.7,1.6-0.4l0.3,0.2C-222,392.7-221.8,393.2-222,393.7z"/>
	<line id="XMLID_430_" class="st0" x1="-222" y1="404" x2="-223.5" y2="408.5"/>
</g>
</svg>
