<?xml version="1.0" encoding="utf-8"?>
<!-- Generator: Adobe Illustrator 19.0.0, SVG Export Plug-In . SVG Version: 6.00 Build 0)  -->
<svg version="1.1" id="Layer_1" xmlns="http://www.w3.org/2000/svg" xmlns:xlink="http://www.w3.org/1999/xlink" x="0px" y="0px"
	 viewBox="0 0 446.9 452" style="enable-background:new 0 0 446.9 452;" xml:space="preserve">
<style type="text/css">
	.st0{fill:#E5E5E5; width: 100%, 100%}
</style>
<path id="XMLID_754_" class="st0" d="M394.9,440.8c-12.5-2-24.4-6.5-37.7-5c-23.7,4.5-43,16.3-67.4,14.2c-3.5,0-7,0-10.5,0
	c-14.2,0-28.8,0-43.5,0c-4.2,0-8.4,0-12.6,0c-3.5,0.3-7.1,0.5-10.6,0.8c-3.6,0.3-7.2,0.6-10.8,0.8c-16.1,1.3-30.7-1.6-45.6-4.5
	c-3.7-0.7-7.5-1.5-11.3-2.2c-25.1-9.1-51.8,4.2-78.5-4.7c-23.7-7.4-68.3-20.8-60.8-53.4c5.9-25.2,54.9-34.1,29.9-62.3
	c-2.3-4.2-4.8-8.3-7.5-12.2C17.2,296.5,5,282,3.9,262.2c-1.1-4.5-2.2-9.1-3.5-13.7c0-4.2,0-8.3,0.1-12.4c-1-22.9,18.3-40.7,12.4-63
	C5.5,136-1.9,100.4,0.4,64c0-5.6,0-10.8,0-15.7c0-24.4,0-39.5,0-39.5C0.4,3.9,4.4,0,9.2,0c0,0,64.4,0,143.2,0c3.6,0,7.2,0,10.8,0.1
	c41.2,5.4,81.2,5.4,122.9,0.1c3.6-0.1,7.2-0.1,10.8-0.1c3.6,0,7.1,0,10.6,0c3.8,0,7.6,0,11.3,0c41.4,9.9,85.9-6.4,121.5,6.9
	c13.4,5.9,1.5,44.5,5.6,70c-0.2,5.8-0.4,11.9-1.4,18.1c-1.2,3.9-1.2,11.3-4.1,12.8c-46,37.1-5.9,75.7,5.3,116.2
	c0.2,3.6,0.2,7.3,0.2,10.9c-0.2,4.5-0.9,8.9-1.9,13.1c-1.1,4.2-2.5,8.3-4.2,12.3c-5.3,25.6-52.8,43.4-32,68.6
	c10.4,14.8,32.6,20.8,35.5,39.9c1.3,4.5,2.1,9.1,2.3,14.1c0.3,4.1,0.3,8.5,0.1,13.1c-1.2,22.8-8,48.3-36.8,46.2
	C404.6,442.4,399.9,441.9,394.9,440.8z"/>
</svg>
