<?xml version="1.0" encoding="utf-8"?>
<!-- Generator: Adobe Illustrator 19.0.0, SVG Export Plug-In . SVG Version: 6.00 Build 0)  -->
<svg version="1.1" id="Layer_1" xmlns="http://www.w3.org/2000/svg" xmlns:xlink="http://www.w3.org/1999/xlink" x="0px" y="0px"
	 viewBox="28.2 312.2 204.2 168.5" style="enable-background:new 28.2 312.2 204.2 168.5;" xml:space="preserve">
<path id="XMLID_182_" d="M28.2,364.1c28.9,0,57.8-0.2,86.7,0.2c6.5,0.1,13.1,1.5,19.3,3.5c8,2.5,15.9,11,14.2,22.1
	c-5.4-6-12-9.2-19.6-10.4c-4.2-0.7-8.5-1.3-12.7-1.3c-29.3-0.1-58.6-0.1-88,0C28.2,373.5,28.2,368.8,28.2,364.1z"/>
<path id="XMLID_181_" d="M28.2,416.2c30.3,0,60.6,0.2,90.8-0.1c9.8-0.1,19.6-1.3,29.4-2c0.6,5.8-1.1,9.9-7.8,11.8
	c-8,2.3-16.3,4-24.6,4.1c-29.3,0.5-58.6,0.2-87.9,0.2C28.2,425.6,28.2,420.9,28.2,416.2z"/>
<path id="XMLID_180_" d="M28.2,442.7c4.7-0.1,9.3-0.2,14-0.2c22.9,0,45.7,0.1,68.6-0.1c6,0,12.1-0.6,18.1-1.5
	c7.4-1.2,14.1-4.2,19.5-10.5c1.2,9.5-2.7,16-9.9,19.8c-5.4,2.9-11.8,5.3-17.8,5.4c-30.8,0.5-61.7,0.3-92.5,0.3
	C28.2,451.5,28.2,447.1,28.2,442.7z"/>
<path id="XMLID_179_" d="M28.2,390.6c1.1-0.1,2.2-0.2,3.3-0.2c30.6,0.1,61.1-0.1,91.7,0.4c6.4,0.1,13,2.1,19,4.4
	c5.6,2.1,6.8,5.6,6.1,11.8c-15.7-3.5-31.6-3-47.4-3c-22.6-0.1-45.2,0-67.7,0c-1.6,0-3.3-0.1-4.9-0.1C28.2,399.4,28.2,395,28.2,390.6
	z"/>
<path id="XMLID_178_" d="M168.8,480.7c-3.4-0.6-6.8-0.9-10.1-1.8c-6.9-2.1-10.4-7-9.5-13.1c6,5.3,13.1,6,20.5,6.1
	c20.4,0,40.8,0,61.2,0c0.5,0,1.1-0.2,1.6-0.3c0,3,0,6.1,0,9.1C211.2,480.7,190,480.7,168.8,480.7z"/>
<path id="XMLID_177_" d="M232.4,464.2c-0.5,0.1-1.1,0.3-1.6,0.3c-22.9-0.1-45.7-0.1-68.6-0.4c-3.2,0-6.4-1.3-9.5-2.4
	c-3-1.1-4.7-3.3-4-6.3c27.9,1.3,55.8,0.5,83.7,0.5C232.4,458.7,232.4,461.4,232.4,464.2z"/>
<path id="XMLID_176_" d="M75.3,312c0.3,4.5,0.6,8.9,1,14.1c-16.4,0-32.3,0-48.1,0c0-4.7,0-9.4,0-14.1C43.9,312,59.6,312,75.3,312z"
	/>
<path id="XMLID_175_" d="M28.2,338.5c15.8,0,31.6,0,47.6,0c0,4.6,0,8.8,0,14.1c-15.8,0-31.7,0-47.6,0
	C28.2,347.9,28.2,343.2,28.2,338.5z"/>
</svg>
