<?xml version="1.0" encoding="utf-8"?>
<!-- Generator: Adobe Illustrator 19.0.0, SVG Export Plug-In . SVG Version: 6.00 Build 0)  -->
<svg version="1.1" id="Layer_1" xmlns="http://www.w3.org/2000/svg" xmlns:xlink="http://www.w3.org/1999/xlink" x="0px" y="0px"
	 viewBox="72 321.9 109.7 131.4" style="enable-background:new 72 321.9 109.7 131.4;" xml:space="preserve">
<path id="XMLID_201_" d="M72,321.9c13.3,0,26.2-0.2,39.1,0.1c12.9,0.3,25.9,0.1,38.5,1.9c15.2,2.2,23.6,10.6,25.2,24
	c1.5,12.5,0.9,23.7-15.2,33.1c-0.3,0.2-0.5,0.4-0.9,0.8c10.6,3.6,18,10.5,21.2,21.3c6.7,22.4-5.4,42.8-28.8,48
	c-5.7,1.3-11.6,1.9-17.5,1.9c-18.7,0.2-37.3,0.1-56,0.1c-1.7,0-3.5,0-5.6,0C72,409.4,72,366,72,321.9z M101.4,430
	c12,0,23.4,0.5,34.8-0.1c9.5-0.5,15.2-6,15.8-13.5c0.8-11.4-2.7-18.9-11.6-20c-12.8-1.6-25.8-1.4-39-1.9
	C101.4,406.8,101.4,418.1,101.4,430z M101.4,374.5c11.3,0,22.2,0.4,33-0.1c7.9-0.4,12.4-6.1,12.7-14.1c0.3-7.4-3.6-13.4-11.3-14
	c-11.3-0.9-22.7-0.2-34.3-0.2C101.4,355.1,101.4,364.5,101.4,374.5z"/>
</svg>
