<?xml version="1.0" encoding="utf-8"?>
<!-- Generator: Adobe Illustrator 19.0.0, SVG Export Plug-In . SVG Version: 6.00 Build 0)  -->
<svg version="1.1" id="Layer_1" xmlns="http://www.w3.org/2000/svg" xmlns:xlink="http://www.w3.org/1999/xlink" x="0px" y="0px"
	 viewBox="0 0 270 202" style="enable-background:new 0 0 270 202;" xml:space="preserve">
<g id="XMLID_5_">
	<path id="XMLID_233_" d="M212.3,153.4c-2,4.3-4,8.5-6.3,13.4c-6.6-3.2-13.4-6.6-20.3-9.8c-1.6-0.8-4-1.5-5.4-0.9
		c-23.3,9.7-47.2,10.4-71.6,5.6c-19-3.8-36.2-11.8-52.3-22.6c-2.7-1.8-6.3-3-9.5-3.2c-15.4-0.8-31.5-13.5-37.7-30.2
		c-3-8-4.2-16.1-0.9-24.3c4.8-11.6,17.1-16.5,30.1-11.5c5.4,2,10.2,5.3,16.4,8.6c1.4-8.4,3.6-16.9,4.2-25.4
		c0.7-10.4,0.2-20.9,0.2-31.4c0.4,0,0.8,0,1.2,0c4.1,5.9,7.7,12.2,12.2,17.8c8.5,10.4,19.4,17.1,32.9,18.9c1.7,0.2,3.9-0.3,5.4-1.2
		c9.5-5.7,19.3-6.6,29.6-2.2c1.9,0.8,4.3,1.5,6.2,1.1c18.7-4,36.2-10.9,49.3-25.4c4.9-5.4,8.1-12.5,12.2-18.6
		c1.6-2.4,3.7-4.4,5.5-6.6c1.8,2.6,4.6,5,5.2,7.9c1.3,6.3,1.8,12.9,2.1,19.3c1,29.3-0.7,58.3-10.8,86.1c-2.5,6.8-6.1,13.2-9.4,20.2
		c3.3,1.8,7,4.4,11.1,6c3.8,1.5,4.4,3,1.4,5.9c-0.7,0.6-0.9,1.7-1.4,2.6L212.3,153.4z M148.3,93.5c0.7-0.9,1.6-1.7,2-2.7
		c3.7-9,2.1-17.5-4-24.7c-6.5-7.7-15.1-10.1-24.8-7.6c-9.9,2.5-17,11.8-17.4,22.4c-0.4,10.9,6.1,20.2,16.4,23.7
		c9.9,3.3,20.8-0.2,26.5-8.6C147.4,95.2,147.8,94.4,148.3,93.5z M64.7,108c1.1-5.7-4.3-10.6-7.2-16.7C53,82,45.6,77.1,36.4,74.5
		C22,70.3,10.1,80.4,11.5,95.3c1.3,15.2,13.1,29.6,27.7,34.1C53.5,133.7,65.2,124.8,64.7,108z M98.8,77.7c0.9-7.7-4.2-14.5-12-17.2
		c-9.1-3.2-19.1,0.5-24.2,8.9c-4.7,7.7-3.3,18.4,3.3,24.8c6.8,6.7,16.9,7.8,24.6,2.6c-15,0-22.5-8.3-17-19.2c0.8,5,3.4,8.8,8.3,8.2
		c2.6-0.3,6.1-3.2,7.1-5.7c1.9-5.1-1.8-8.2-6.9-10.2C89.8,68.2,94.4,71.9,98.8,77.7z M103.4,132c13.7,4.4,27.6,6.8,42,5.4
		c3.4-0.3,5.6-1.4,7.2-4.9c3-7,6.4-8.5,13.9-7.2c2.2,0.4,4.3,1.1,6.7,1.7c-2.8-6.9-9-11.2-18.9-13.4c2.1,2.6,4,4.9,5.8,7
		C142.9,134.1,122.9,131.6,103.4,132z"/>
	<path id="XMLID_232_" d="M212.1,153.6c3.1-3.7,6.2-3.8,9.8-0.6c1.9,1.8,4.5,2.9,6.7,4.4c2.9,2,5.6,3.2,9.6,1.8
		c5.2-1.9,9.8,0.7,13.5,4.4c8.7,9,11.4,20.7,14,32.3c-8.9-3.1-17.4-6-25.9-8.9c-5.2-1.8-8.5-5.4-10.8-10.4c-0.9-2-2.9-3.9-4.9-4.8
		c-4.9-2.3-10.2-4-15.7-6.1c1.3-4.2,2.6-8.2,3.9-12.2C212.3,153.4,212.1,153.6,212.1,153.6z"/>
	<path id="XMLID_224_" d="M146.9,96.1c-4.1,1.9-8.2,5-12.4,5.4c-11.3,1.1-19.2-10.5-15-20.6c1.1,2.1,1.9,4.8,3.7,6.2
		c1.9,1.5,4.8,2.3,7.2,2.3c4.4,0,6.9-3.1,7.8-7.1c1-4.5-1.5-8-7.7-11.1c11.9-2.7,21.5,7.2,18.8,19.2c-0.3,1.1-0.6,2.2-0.9,3.3
		C147.8,94.4,147.4,95.2,146.9,96.1z"/>
</g>
</svg>
