<?xml version="1.0" encoding="utf-8"?>
<!-- Generator: Adobe Illustrator 19.0.0, SVG Export Plug-In . SVG Version: 6.00 Build 0)  -->
<svg version="1.1" id="Layer_1" xmlns="http://www.w3.org/2000/svg" xmlns:xlink="http://www.w3.org/1999/xlink" x="0px" y="0px"
	 viewBox="-166.1 318.5 261.1 157.5" style="enable-background:new -166.1 318.5 261.1 157.5;" xml:space="preserve">
<g id="XMLID_1_">
	<path id="XMLID_24_" d="M-99.1,318.5c8.4,2,15.3,6.4,19.6,13.9c1.6,2.9,2,6.8,1.9,10.3c-0.1,1.6-2.4,4-4.2,4.5
		c-1.4,0.4-3.9-1-5.2-2.4c-1.8-1.9-3-4.5-4.4-6.8c-4.6-7.2-10.6-9.3-17.5-4.3c-6,4.3-11.7,9.6-16.2,15.5c-12,16-20.6,33.9-24,53.8
		c-0.7,4.1-0.8,8.5-0.3,12.6c1,8.2,6.6,11.2,13.3,6.4c7.3-5.2,13.7-11.6,20.2-17.8c8.2-7.8,10.6-18.6,14.2-28.8
		c0.9-2.4,2.2-5.2,4.1-6.7c3.8-3.1,8.8-0.6,8.4,4.2c-0.4,5.5-1.5,11-3.1,16.3c-5.7,18.6-11.6,37.2-17.7,55.7
		c-1.1,3.5-2.9,6.9-5.2,9.7c-2.6,3.1-6.2,1.9-6.6-2.2c-0.3-3.3,0-6.9,0.8-10.2c2.1-8.3,4.7-16.4,7.3-24.9c-4.5,4-8.4,8-12.9,11.5
		c-3.9,3-8.1,5.9-12.5,7.9c-10.9,5-20.9,0.5-24.9-10.9c-0.8-2.2-1.3-4.6-2-6.9c0-3,0-6,0-9.1c0.2-0.7,0.6-1.4,0.7-2.1
		c2.5-22.1,10.9-42,23.5-60.1c9.4-13.5,20.4-25.2,37.4-29.2C-102.8,318.5-101,318.5-99.1,318.5z"/>
	<path id="XMLID_22_" d="M12.4,423.8c-4.6,3.4-8.7,6.6-13,9.5c-2.4,1.5-5,2.8-7.8,3.6c-7.5,2.1-11.3,0.3-14.9-7.1
		c-2.8,1.7-5.5,3.5-8.4,4.9c-2.4,1.1-5,2.1-7.6,2.5c-5.6,0.8-8.6-1.8-9-7.4c-0.2-2.8,0.3-5.7,0.5-9.2c-1,1.3-1.8,2.2-2.5,3.1
		c-6.4,8.1-14.1,14.1-25.1,13.7c-7.6-0.3-12-5.4-10.7-12.9c2.7-15.6,9.2-29.8,16.2-43.8c0.8-1.6,3-3,4.9-3.6
		c4.7-1.4,8.2,2.3,6.5,6.9c-1.3,3.5-3.4,6.7-4.9,10.2c-2.8,6.8-5.5,13.6-8.1,20.5c-0.5,1.4-0.5,3-0.5,4.5c0,3.6,1.8,4.8,5.3,4
		c6.6-1.6,11.3-6.1,14.6-11.4c4.7-7.6,8.5-15.8,12.6-23.8c1.1-2.3,1.7-4.8,2.9-7c1.4-2.5,3.3-5.1,6.8-3.7c3.5,1.4,4.4,4.4,3.3,7.8
		c-1,3.1-2.3,6.2-3.4,9.3c-2.7,7.3-5.6,14.6-7.9,22c-0.7,2.4,0.1,5.2,0.2,7.8c2.7-0.4,5.6-0.2,8.1-1.2c4.7-1.9,7.5-5.3,9.5-10.5
		c9.8-26.1,20.2-52.1,30.7-78c0.9-2.1,3-4.2,5.1-5.2c4-2,7.7,0.8,7.5,5.2c-0.1,2-0.8,4.1-1.6,6c-9.5,23.4-19.2,46.7-28.7,70
		c-1.1,2.8-2.1,5.7-2.7,8.6c-0.3,1.3-0.1,3.4,0.7,4.1c0.8,0.7,3.1,0.5,4.1-0.2c5.3-3.4,10.5-7,15.5-10.8c7-5.4,12.9-11.6,14.6-20.9
		c0.5-2.8,2.4-5.5,3.7-8.1c1.4-2.8,3.9-4.4,6.6-2.7c1.5,0.9,2,3.8,2.4,5.9c0.3,1.4-0.2,3-0.5,5c3.7-3.1,6.8-6.2,10.3-8.8
		c5.3-3.9,11-6.8,18-4.9c6.1,1.6,9.9,7,7.3,12.6c-3.3,7.3-7.9,14-12.3,20.8c-2.4,3.6-5.7,6.6-8.4,10.1c-0.8,1-0.7,2.6-1,3.9
		c1.4,0,3.1,0.6,4.2,0c3.2-1.9,6.4-4,9.3-6.4c7.9-6.5,15.6-13.3,23.5-19.8c1.4-1.2,3.7-1.3,5.6-1.9c0.4,2.1,1.3,4.2,1.1,6.3
		c-0.2,1.8-1.3,3.9-2.6,5.1c-8.8,7.8-17.5,15.7-26.7,23.1c-5.7,4.6-12.5,7.2-20.1,6.4c-7.9-0.8-11.4-6.5-7.3-13.4
		c4.2-6.9,9.5-13.1,14.4-19.6c2.2-3,4.6-6,6.5-9.2c0.7-1.1,1-3.2,0.3-4c-0.7-0.9-3-1.4-4-0.9c-4.1,2.1-8.5,4.1-11.8,7.1
		c-10.3,9.3-16.2,21.6-21.4,34.1c-4.8,11.5-9,23.2-13.7,34.7c-1.2,3-2.8,6.3-5.1,8.2c-1.8,1.5-5.4,1.8-7.8,1.1
		c-1.2-0.3-2.5-4.1-2.2-6c0.8-4.2,2.2-8.4,4-12.4c4.5-10.3,9.4-20.5,14.1-30.7C11.7,425.7,12,424.9,12.4,423.8z"/>
</g>
</svg>
