<?xml version="1.0" encoding="utf-8"?>
<!-- Generator: Adobe Illustrator 19.0.0, SVG Export Plug-In . SVG Version: 6.00 Build 0)  -->
<svg version="1.1" id="Layer_1" xmlns="http://www.w3.org/2000/svg" xmlns:xlink="http://www.w3.org/1999/xlink" x="0px" y="0px"
	 viewBox="101.3 325.2 55.7 124.3" style="enable-background:new 101.3 325.2 55.7 124.3;" xml:space="preserve">
<g id="XMLID_35_">
	<path id="XMLID_263_" d="M105.9,398.9c3.4,0.9,5.4-1.5,7.8-3.4c-0.5,1.8-1,3.3-1.2,4.8c-0.1,0.7,0.4,1.5,0.7,2.3
		c0.6-0.6,1.4-1.1,1.7-1.7c1.5-4.5,3-9,4.2-13.5c0.2-0.7-0.2-2.2-0.7-2.5c-1.2-0.5-1.7,0.7-1.9,1.6c-0.9,3.6-2.9,6.4-5.9,8.6
		c-0.6,0.5-1.8,0.9-2.3,0.6c-0.5-0.2-0.9-1.5-0.8-2.2c0.3-5.8,2.9-10.6,7-14.6c1.8-1.7,3.1-1.3,4.6,0.8c0.4,0.6,1.3,0.8,2,1.2
		c0.1-1,0.7-2.1,0.3-2.8c-1.3-2.8-4.5-3.7-7.3-2.3c-2.6,1.4-4.5,3.5-6,6c-1.2,2-2.1,4-3.2,6.1c-1-9.7-2.1-19.3-3.1-28.7
		c18.4,3.5,36.6,3.4,55.1,0.1c-0.1,1.6-0.3,3.5-0.5,5.3c-0.8,8-1.7,16-2.6,24c-0.3,3.3-3.4,6.9-6.8,7.6c1-1.2,1.8-2.1,2.5-3.2
		c0.7-0.9,1.4-1.8,1.7-2.8c0.3-0.8,0.3-2.3-0.2-2.7c-0.7-0.6-2.1-0.9-3-0.6c-1.2,0.3-2.2,1.2-3.3,1.8c-0.3-0.4-0.7-0.9-1.1-1.5
		c-0.6,0.5-1.5,0.9-1.6,1.5c-0.8,2.9-2.7,4.7-5,6.3c-0.5,0.4-1.2,0.7-2.2,1.2c0.3-1.3,0.4-2.1,0.7-2.9c1.7-4.3,3.5-8.6,5.3-12.9
		c0.1-0.3,0.4-0.6,0.3-0.9c-0.1-0.8-0.3-1.6-0.4-2.4c-0.7,0.4-1.8,0.7-2.1,1.4c-1.5,3.3-2.8,6.8-4.1,10.2c-0.7,1.7-1.4,3.5-2,5.2
		c-0.5,1.4-1.5,2-3.5,2.1c0.5-1.6,0.8-3,1.3-4.4c0.4-1.1,1-2,1.2-3.1c0.1-0.6-0.4-1.3-0.7-1.9c-0.5,0.3-1.3,0.6-1.5,1
		c-0.7,1.4-1.2,2.9-1.9,4.2c-1,1.8-2.1,3.6-4.7,4c0.1-0.8,0-1.6,0.2-2.2c0.7-1.7,1.6-3.4,2.2-5.1c0.2-0.5-0.2-1.2-0.3-1.8
		c-0.6,0.2-1.7,0.2-1.9,0.5c-1.2,2.9-2.5,5.8-3.3,8.9c-0.5,1.9,1.2,3.3,3.1,2.7c1.5-0.5,2.8-1.4,3.9-2c0.6,0.6,1.3,1.9,2.1,2
		c1,0.1,2.2-0.7,3.3-1.2c1.7,1.9,2.7,1.8,6.8-1.1c-1.1,2.5-2.1,4.6-3,6.7c-0.4,1.1-1.5,2.5,0.2,3.2c1.7,0.7,2.1-1,2.6-2.2
		c1.2-2.9,2.2-5.8,3.5-8.6c0.9-1.8,2.2-3.4,3.5-5c0.5-0.6,1.6-0.9,2.4-1.3c0.1,0.2,0.3,0.4,0.4,0.6c-0.6,0.8-1.2,1.7-1.8,2.5
		c-0.8,1.1-1.8,2.1-2.5,3.3c-1.1,1.8-0.1,3.4,1.9,3.1c1.3-0.2,2.7-0.9,3.9-1.6c0.9-0.5,1.7-1.3,2.6-2.1c-0.9,7.4-1.7,14.6-2.6,21.8
		c-0.1,0.6-0.8,1.4-1.4,1.6c-3.5,1-7,2.1-10.7,2.6c-8.5,1.1-17,0.9-25.4-1.3c-0.4-0.1-0.7-0.2-1.1-0.3c-4.3-1.5-4.1-0.8-4.4-5.6
		c-0.3-4.5-0.9-9-1.4-13.6C105.9,400,105.9,399.5,105.9,398.9z"/>
	<path id="XMLID_262_" d="M109.3,420.6c13.2,3.7,26.1,3.7,39.2,0.1c-0.2,0.4-0.2,0.7-0.3,0.8c-2.9,3.6-2.9,7.9-3.1,12.2
		c-0.2,3.7-0.5,7.3-0.6,11c0,1.6-0.9,2.5-2.2,2.8c-3.1,0.7-6.3,1.5-9.5,1.8c-5.2,0.5-10.4,0.1-15.6-1.3c-2-0.6-3.3-1.6-3.4-4
		c-0.3-5.5-0.8-10.9-1.2-16.4c-0.1-0.9-0.4-1.8-0.8-2.6C111.1,423.6,110.2,422.2,109.3,420.6z"/>
	<path id="XMLID_259_" d="M140.7,352.9c3.4,0.4,6.5,0.7,9.5,1.1c1.9,0.3,3.8,0.8,5.6,1.3c0.5,0.1,0.8,0.7,1.2,1
		c-0.4,0.4-0.8,1-1.3,1.2c-2.5,0.6-4.9,1.3-7.5,1.6c-10.1,1.2-20.3,1.4-30.4,0.7c-4.6-0.3-9.2-1.1-13.8-1.9c-1-0.2-1.8-1-2.7-1.6
		c0.9-0.5,1.8-1.4,2.8-1.6c4.9-0.8,9.8-1.6,14.8-1.9c5-0.3,10.1-0.2,15.2-0.1c1.2,0,1.8-0.4,2.1-1.5c0.1-0.7,0.4-1.3,0.5-2
		c0.9-5.8,3.3-10.6,7.9-14.5c3.1-2.6,5.7-5.8,8.4-8.8c1.3-1.5,2.3-0.6,3.3,0.2c1.1,0.9,1.3,1.8,0.1,2.9c-3.9,4-7.8,8.1-11.6,12.2
		c-0.9,1-1.5,2.2-1.9,3.5C142,347.4,141.4,350.1,140.7,352.9z M140.4,357.4c-2.3,0-4.4,0-6.6,0C135,359.1,139.2,359.1,140.4,357.4z"
		/>
</g>
</svg>
