<?xml version="1.0" encoding="utf-8"?>
<!-- Generator: Adobe Illustrator 19.0.0, SVG Export Plug-In . SVG Version: 6.00 Build 0)  -->
<svg version="1.1" id="Layer_1" xmlns="http://www.w3.org/2000/svg" xmlns:xlink="http://www.w3.org/1999/xlink" x="0px" y="0px"
	 viewBox="28.2 319.9 204.2 153.2" style="enable-background:new 28.2 319.9 204.2 153.2;" xml:space="preserve">
<path id="XMLID_202_" d="M128.6,321.6c3.7,0.9,7.6,1.5,11.2,2.7c16.9,5.5,22.6,20.7,14,37.3c-7.5,14.5-19.7,23.1-35.3,27.2
	c-8.9,2.3-18,3.7-27,1.4c-4.4-1.1-8.4-4.2-12.3-6.9c-1.4-1-1.8-3.4-2.8-5.6c1.3,0,1.8-0.2,2,0c6.6,6.7,15,7.4,23.6,6.2
	c15.5-2.2,28.9-8.5,38.7-21.1c2.3-3,4.1-6.7,5.3-10.3c2.6-8.2-0.4-14.7-8.7-16.6c-6.7-1.6-14-2.5-20.8-1.5
	c-23.6,3.4-43.8,14.2-61.1,30.3c-2.6,2.4-4.8,5.5-6.6,8.7c-5,8.7-4.1,17.6,2.4,25.3c1.4,1.7,3,3.3,4.7,4.7
	c7.2,5.9,14.5,11.8,21.9,17.8c6-3.3,12.2-6.6,18.3-10.1c1.3-0.7,2.1-2.2,3.4-3.2c4-3,7.7-6.7,12.2-8.8c6.2-2.8,10.1,0.3,10.2,7.1
	c0,1.3,0,2.6,0,3.9c6.4-0.2,7.2,1,5.6,7.2c-1.5,5.8-2.9,11.6-4.1,17.4c-0.3,1.3,0,2.7,0.8,4.4c1.6-3.2,3.2-6.3,4.7-9.5
	c4.4-9.7,8.7-19.4,13-29.2c0.4-0.9,0.8-1.9,1.1-2.9c2.1-6.6,3-7.2,9.9-6.7c3.7,0.3,4.4,1.1,3.2,4.6c-2.4,6.9-2.5,13.7,2,21.5
	c4.3-9,8.7-16.9,11.9-25.3c2.2-5.7,5.5-8.3,11.5-6.8c2,0.5,2.7,1.5,2.1,3.7c-0.9,3.2-1.8,6.5-2,9.9c-0.3,5.2,1.7,9.9,4.7,14.1
	c21.1-8.6,41.2-2.5,46.4,14.4c0,2.1,0,4.2,0,6.2c-1.9,5.2-4.9,9.2-10.9,9.7c0.6-1.2,1.5-2,2.4-2.7c4.5-3.6,6-8.7,2.8-13.4
	c-2.2-3.3-5.4-6.6-8.9-8.2c-9.5-4.5-19.4-4.5-29.3-0.7c3.4,11.3,0.1,16.5-9.7,22.1c-1.3,0.8-2.8,1.6-4.3,1.7
	c-2.2,0.2-5.3,0.6-6.5-0.6c-1.4-1.4-1.8-4.5-1.3-6.7c0.6-2.9,2.1-5.9,3.8-8.4c2-3,4.7-5.5,6.9-8.1c-1.7-5-3.5-9.9-5.2-15
	c-3.4,5.6-6.6,11.2-10,16.6c-1.2,1.9-1.7,3.4-0.9,5.7c0.9,2.8,1.5,5.9,1.1,8.7c-1.1,8.5-10.3,15-20.5,14.8c-1.7,0-4.3-0.8-4.9-2
	c-0.6-1.2,0.4-3.7,1.4-5.1c3.6-4.8,7.5-9.3,11.2-14c0.7-0.9,1.5-2.5,1.2-3.3c-1.8-5-3.9-9.9-6-15.1c-0.4,0.8-0.8,1.6-1.2,2.4
	c-5.2,10.7-10.3,21.5-15.7,32.2c-1.2,2.4-3,4.6-5,6.4c-3.4,3-7.2,1.8-8.3-2.6c-0.7-3-0.8-6.1-1.2-9.6c-0.8,1.7-1.4,3-2.1,4.4
	c-1.5,2.9-2.8,5.9-4.6,8.6c-3.5,5.2-9.4,5.1-12.7-0.3c-3.4-5.6-4.8-11.7-4.1-18.3c0.4-3.8,1.2-7.6,1.9-12c-3.8,2.2-7.3,4.2-10.6,6.1
	c4.3,13.3,2.3,25.6-5.5,34.9c-5.2,6.2-12.1,9.5-19.7,11.6c-2.9,0-5.7,0-8.6,0c-8.5-2.9-11.8-7.7-10.1-16.8c0.8-4.1,2.6-8.8,5.5-11.7
	c5.3-5.3,11.6-9.5,17.7-13.9c2.8-2,6-3.4,9.5-5.4c-5.1-3.6-9.7-6.8-14.2-10c-10.7-7.7-21.3-15.5-25.5-28.9c0-2.1,0-4.2,0-6.2
	c3.1-11.3,9.8-20.1,18.4-27.7c11.9-10.6,25.5-18.3,40.3-23.7c8.5-3.1,17.6-4.8,26.4-7.2C119.7,321.6,124.2,321.6,128.6,321.6z
	 M74,429.2c-6.7,5.2-13.3,9.5-18.9,15c-2.9,2.9-4.6,7.4-5.7,11.5c-1.1,3.8,1.8,6.4,5.4,6.2C68.1,461.1,79.5,442.9,74,429.2z
	 M101.3,442.3c0.6,0.1,1.2,0.1,1.8,0.2c1-1.6,2.3-3.1,2.9-4.8c3.2-8.3,6.4-16.7,9.3-25.1c0.6-1.9,0.1-4.1,0.2-6.2c-2,1-4,1.9-6,3
	c-0.5,0.3-0.9,0.9-1.3,1.4c-5.1,6.7-8.1,14.3-8.2,22.7C99.9,436.4,100.8,439.4,101.3,442.3z M172.9,435.8c7-2.4,9.9-7.9,7.5-13.6
	C176.5,425.9,173.8,430,172.9,435.8z M153.3,431.9c-2.9,3.4-5.7,6.8-8.6,10.2C149.5,440.2,153.1,437.4,153.3,431.9z"/>
</svg>
