<?xml version="1.0" encoding="utf-8"?>
<!-- Generator: Adobe Illustrator 19.0.0, SVG Export Plug-In . SVG Version: 6.00 Build 0)  -->
<svg version="1.1" id="Layer_1" xmlns="http://www.w3.org/2000/svg" xmlns:xlink="http://www.w3.org/1999/xlink" x="0px" y="0px"
	 viewBox="28.2 355.9 204.2 81.1" style="enable-background:new 28.2 355.9 204.2 81.1;" xml:space="preserve">
<g id="XMLID_170_">
	<path id="XMLID_213_" d="M142.5,436c-0.8-0.4-1.7-0.7-2.5-1.1c-3.9-1.9-4.9-4.4-3.6-8.6c1.7-5.7,5.1-10.3,9.4-14
		c5.4-4.7,4.5-10.9,5.1-17c-1.5,2.3-2.9,4.5-4.4,6.8c-0.6,0.9-1.2,1.8-1.9,2.7c-1.6,2.1-3.7,3.2-6.2,2.3c-2.4-0.8-3.7-2.6-3.6-5.2
		c0-0.4-0.1-0.8-0.2-1.5c-1.8,2.7-3.4,5.1-5.2,7.4c-1.2,1.5-2.5,3.2-4.8,2.3c-2.3-0.9-3.1-2.9-2.9-5.1c0.3-3.1,0.9-6.1,1.3-9.2
		c0.1-1,0.1-2.1,0.2-3.3c-3.2,0.5-4.8,2.5-5.7,4.7c-2.1,4.8-4,9.6-5.6,14.5c-0.9,2.7-2.8,3.7-6.3,2.8c-2.7-0.7-3.2-1.7-2.4-4.7
		c1.3-4.8,2.7-9.6,4.2-15.3c-1.8,2.3-3,3.9-4.3,5.5c-1.1,1.2-2.3,2.4-3.6,3.4c-5,3.7-9,2.6-12-3.2c-1.1,1.5-2.1,3-3.3,4.3
		c-1.6,1.8-3.4,3.5-6.2,2.6c-2.1-0.7-3.2-3.5-2.8-6.6c0.1-0.7,0.2-1.4,0.4-2.9c-2,2.7-3.6,4.8-5.3,6.9c-2.6,3.1-3.3,3.2-7,0.9
		c-1.6,3.1-3.3,6.3-4.9,9.4c-1.4,2.7-3.4,4.6-6.6,4.8c-4.3,0.3-7.1-1.9-7.1-6.1c0-4.6,0.4-9.2,1.3-13.6c0.9-4.9,2.6-9.7,3.9-14.6
		c0.3-1.3,0.5-2.6,0.9-4.4c-5.3,0.5-10,0.7-14.7,1.3c-2.6,0.3-3.5-0.9-3.8-3.4c5.7-0.6,11.2-1.3,16.7-1.7c2.7-0.2,4.7-0.6,5.4-3.7
		c0.5-2,1.6-3.8,2.5-5.7c4.4,0.6,5.2,2.3,4.3,8.3c10.6-1,21.2-2.1,31.9-3.1c2.1-0.2,4.2-0.6,6.3-0.5c0.9,0,1.7,1.1,2.5,1.7
		c-0.6,0.7-1.2,1.9-1.9,2c-4.6,0.5-9.3,0.6-14,1.1c-8.2,0.9-16.4,1.8-24.6,2.9c-0.9,0.1-2.3,1.1-2.5,2c-2.8,8.6-5.4,17.3-7.9,26
		c-0.6,2-0.5,4.2-0.3,6.3c0.2,1.9,1.5,2.7,3,1.3c4.1-3.9,7.7-7.9,7.5-14.2c-0.1-4.1,1.6-7.7,4-10.9c1.2-1.6,2.6-3.1,4.1-4.5
		c5.3-4.9,8.4-5.2,14.4-1.3c0.6,0.4,0.8,2,0.6,2.8c-1.1,4.4-2.4,8.8-3.5,13.2c-0.2,0.8-0.2,1.7-0.3,2.6c0.2,0.1,0.4,0.2,0.6,0.3
		c1.3-1.6,2.7-3.1,3.9-4.7c3.3-4.4,6.4-8.9,9.8-13.3c1.9-2.5,5-2.7,7.2-0.6c0.6,0.6,0.9,2,0.7,2.8c-0.2,0.6-1.5,0.8-2.4,1.2
		c-1.2,0.5-3,0.6-3.4,1.4c-1.4,2.9-2.6,6-3.3,9.2c-0.6,2.5,1.3,3.7,3.5,2.2c2-1.4,3.8-3.1,5.4-5c7.7-9.6,13-20.6,17.7-31.8
		c0.6-1.4,1.3-2.8,1.9-4.3c0.9-2.3,2.6-2.6,4.7-2.3c1.6,0.3,2.4,1,1.8,2.8c-1.9,5.5-3.6,11.1-5.4,16.7c-1.2,3.8-2.5,7.6-3.7,11.4
		c0.4,0.2,0.6,0.3,0.7,0.3c5.6-1.4,7-0.1,6.2,5.7c-0.5,3.6-0.8,7.2-1.1,10.7c0.2,0.1,0.4,0.2,0.7,0.3c0.8-0.9,1.7-1.8,2.3-2.8
		c3.6-6.3,7.2-12.7,10.8-19.1c0.4-0.7,1.5-1.4,2.3-1.3c4.1,0.2,5.2,2.4,3.5,6.1c-1.1,2.5-2.1,5.1-3,7.6c-0.3,1-0.2,2.1-0.3,3.1
		c0.2,0.1,0.4,0.2,0.6,0.4c0.7-0.6,1.5-1.1,2-1.9c2.4-3.1,4.9-6.2,7.1-9.5c1.3-1.9,2.8-1.8,4.6-1.4c1.7,0.4,2.7,1.6,2.4,3.5
		c-0.4,3.3-0.9,6.7-0.9,10.5c3.1-3.5,6.3-6.9,9.3-10.5c0.5-0.6,0.2-1.8,0.2-2.7c0-3.6,1.3-6.6,4-9c1.6-1.5,3.5-2.3,5.8-1.4
		c2.2,0.9,2.9,2.6,3.1,4.7c1.3,9.7-0.9,18.6-5.8,26.9c-2.4,4-4.9,5.3-8,4.2c-3.1-1.1-5.1-5.4-4.4-9.2c0.2-1.3,0.6-2.6,1-4.2
		c-4.6,2.6-7.2,6-7.8,11.2c-0.7,5.4-2.1,10.8-3.3,16.1c-0.8,3.6-2.6,6.6-6,8.4C144.3,436,143.4,436,142.5,436z M166.3,410.1
		c0.3,0.1,0.7,0.2,1,0.3c0.9-1,1.8-2,2.6-3.1c3.9-5.5,5.9-11.7,6.7-18.3c0.3-2.3,0.4-4.8,0-7c-0.6-3.1-3-3.8-5.1-1.5
		c-1.6,1.7-2.6,4.1-3.7,6.2c-0.8,1.6-0.2,2.6,1.6,2.9c2.3,0.3,2.5,1.7,1.8,3.6c-1.2,3.3-2.5,6.7-3.5,10.1
		C167.1,405.5,166.8,407.8,166.3,410.1z M149.3,412.8c-4.8,3.8-8.9,10.4-9.8,15.2c-0.1,0.8,0.1,2,0.6,2.4c0.7,0.5,2.2,0.6,2.7,0.2
		c1.2-1.1,2.6-2.4,3.1-3.9C147.1,422.3,148.1,417.8,149.3,412.8z M67.2,403.5c3.7-5.6,8.1-10.2,11-16.5
		C71.8,388.3,64.4,399.4,67.2,403.5z"/>
	<path id="XMLID_210_" d="M190.9,398.3c1.7-1.9,3.3-3.9,5.1-5.7c0.9-0.9,1.9-1.7,3.1-2.3c2.8-1.3,5.2,0,5.2,3
		c-0.1,3.6-0.8,7.2-1.3,10.9c-0.1,1-0.2,2.1,0.3,3.4c0.5-0.5,1.1-1,1.6-1.5c4.4-4.9,8.8-9.9,13.4-14.7c1.8-1.9,4.1-3.4,6.4-4.6
		c2.4-1.2,4.4,0,3.9,2.5c-1,6.2-2.2,12.4-4,18.4c-1.1,3.5-3.9,4.6-6.1,3.5c-2.4-1.2-3-4.4-1-7.5c0.9-1.4,2.5-2.8,4-3.4
		c1.5-0.5,2-1.2,2.3-2.6c0.6-2.7,1.2-5.5,1.8-8.2c-0.3-0.2-0.6-0.4-0.9-0.6c-1.7,1.7-3.6,3.4-5.2,5.2c-3.8,4.4-7.5,9-11.3,13.5
		c-0.9,1-1.9,2-3.1,2.7c-2.9,1.8-6.9,0.1-7-3.4c-0.1-3.5,0.8-7,1.3-10.5c0.2-1.2,0.6-2.4,0.9-3.5c-0.2-0.1-0.4-0.3-0.7-0.4
		c-0.7,0.7-1.7,1.3-2.2,2.1c-3.5,5.7-7,11.4-10.4,17.2c-1.1,1.9-2.2,3.4-4.7,2.4c-4-1.5-4.7-2.3-3.7-5.4c2.5-7.9,5.1-15.8,7.8-23.7
		c0.8-2.4,2.5-2.8,5.7-1.6c2,0.8,1.4,2.2,1,3.7c-1,3.6-1.9,7.2-2.9,10.8C190.5,398.2,190.7,398.3,190.9,398.3z M220.3,406.8
		c1.1-2.2,1.9-3.8,3-6C220.1,402,219.1,403.7,220.3,406.8z"/>
</g>
</svg>
