<?xml version="1.0" encoding="utf-8"?>
<!-- Generator: Adobe Illustrator 19.0.0, SVG Export Plug-In . SVG Version: 6.00 Build 0)  -->
<svg version="1.1" id="Layer_1" xmlns="http://www.w3.org/2000/svg" xmlns:xlink="http://www.w3.org/1999/xlink" x="0px" y="0px"
	 viewBox="58.8 325.2 144.8 144.8" style="enable-background:new 58.8 325.2 144.8 144.8;" xml:space="preserve">
<path id="XMLID_228_" d="M203.6,340.1c0,38.6,0,77.1,0,115.7c-11.3,4.5-22.7,9-34,13.7c-2.2,0.9-3.5,0.7-5.2-1.1
	c-17.2-17.4-34.5-34.6-51.7-51.9c-1.8-1.8-2.8-2.1-4.9-0.4c-10.4,8.3-21,16.4-31.5,24.7c-1.4,1.1-2.4,1.2-4,0.4
	c-4.5-2.3-9-4.5-13.6-6.7c0-24.3,0-48.7,0-73c4.5-2.2,9.1-4.3,13.5-6.7c1.6-0.9,2.6-0.6,4,0.4c10.3,8.2,20.8,16.3,31.1,24.6
	c2,1.6,3,1.6,4.9-0.3c17.3-17.4,34.6-34.8,52-52.1c0.7-0.7,1.2-1.5,1.8-2.2c0.2,0,0.4,0,0.6,0C179,330.2,191.3,335.1,203.6,340.1z
	 M75.6,381.5c-0.5,0.7-0.6,1.6-0.6,2.5c0,9.2,0,18.5,0,27.7c0,1,0,1.9,0.7,2.7c5.8-4.6,11-9.9,16.6-14.7c1.5-1.3,0.5-1.9-0.3-2.7
	c-4.9-4.8-9.7-9.7-14.6-14.5C76.9,382,76.6,381,75.6,381.5z M165.5,372.4c-3.2,0.8-5.2,3.4-7.7,5.3c-8.7,6.6-17.3,13.4-26.1,20.2
	c0.6,0.5,0.9,0.9,1.3,1.3c10.2,7.9,20.4,15.8,30.6,23.6c0.5,0.4,0.9,1.4,1.9,0.7c0.6-1,0.6-2,0.6-3.1c0-14.9,0-29.9,0-44.8
	C166.1,374.5,166.2,373.4,165.5,372.4z"/>
</svg>
